<?xml version="1.0" standalone="no"?>
<!DOCTYPE svg PUBLIC "-//W3C//DTD SVG 20010904//EN"
 "http://www.w3.org/TR/2001/REC-SVG-20010904/DTD/svg10.dtd">
<svg version="1.0" xmlns="http://www.w3.org/2000/svg"
 width="446.000000pt" height="280.000000pt" viewBox="0 0 446.000000 280.000000"
 preserveAspectRatio="xMidYMid meet">

<g transform="translate(0.000000,280.000000) scale(0.100000,-0.100000)"
fill="#000000" stroke="none">
<path d="M0 2396 l0 -403 31 5 c30 4 32 3 27 -22 -6 -32 2 -33 29 -3 34 38 38
50 14 42 -19 -6 -21 -3 -19 24 3 35 2 35 29 21 13 -7 19 -7 19 0 0 14 37 13
43 -2 4 -10 8 -9 16 2 7 10 11 11 11 2 0 -13 33 -9 83 11 31 14 35 24 9 30
-16 4 -16 5 1 6 11 1 18 10 19 29 4 59 -4 107 -20 118 -16 12 -16 13 1 19 19
8 24 35 6 35 -6 0 -9 6 -6 14 3 7 1 18 -5 24 -8 8 -7 13 6 18 13 5 14 9 5 20
-9 11 -8 15 5 20 17 7 23 44 6 44 -5 0 -13 -7 -18 -16 -19 -33 -20 11 -1 46
10 19 21 42 25 50 9 17 30 32 41 28 11 -5 12 -42 1 -55 -5 -7 -7 -17 -3 -24 6
-8 10 -7 16 2 13 20 5 -41 -8 -66 -8 -15 -7 -23 2 -32 7 -6 16 -9 19 -5 4 3 6
-19 5 -49 -1 -29 -4 -48 -7 -41 -6 20 -21 14 -19 -8 1 -13 6 -19 15 -15 7 3
16 5 18 5 2 0 4 8 4 18 1 16 1 16 10 0 7 -11 6 -43 -2 -93 -9 -57 -9 -78 0
-83 7 -5 8 -13 2 -22 -8 -13 -10 -13 -10 -1 0 23 -14 3 -26 -40 -10 -32 -9
-39 2 -39 12 0 13 -16 8 -83 -6 -72 -4 -85 10 -90 21 -8 21 -41 0 -72 -10 -15
-12 -25 -5 -25 6 0 11 5 11 10 0 6 4 10 8 10 10 0 9 -49 -2 -71 -4 -9 -6 -20
-5 -25 4 -25 -2 -35 -20 -29 -15 5 -20 -1 -25 -32 -4 -21 -10 -46 -13 -57 -3
-12 -1 -16 6 -12 10 7 16 -11 12 -41 -1 -6 2 -14 7 -17 5 -3 8 15 6 39 -4 44
9 63 18 27 8 -30 -15 -143 -28 -138 -14 5 -36 -92 -23 -100 5 -3 9 -22 9 -44
l0 -38 133 -1 c172 -2 342 14 442 40 89 24 205 36 205 21 0 -5 -17 -12 -37
-15 -21 -3 -75 -13 -120 -21 -107 -20 -314 -45 -428 -51 -121 -7 -208 -20
-233 -36 -12 -8 -26 -26 -31 -41 -6 -16 -15 -28 -20 -28 -6 0 -11 -8 -11 -17
0 -11 3 -14 8 -7 4 6 15 8 26 5 14 -6 8 -10 -25 -20 -64 -19 -68 -22 -29 -16
81 13 110 13 103 1 -3 -6 -1 -6 8 2 19 17 27 15 34 -9 7 -21 10 -21 161 -14
85 4 154 4 154 1 0 -4 -10 -11 -22 -16 -21 -8 -19 -9 12 -10 126 -5 446 15
487 31 13 5 23 15 23 24 0 27 48 135 85 190 60 91 156 175 259 227 34 17 66
38 73 47 12 14 12 14 7 -2 -4 -10 -32 -31 -63 -47 -163 -82 -313 -270 -352
-439 -16 -73 -14 -186 5 -241 8 -24 12 -48 8 -54 -3 -6 -11 12 -17 39 l-10 50
-55 0 c-70 1 -85 -7 -88 -41 -1 -16 -9 -35 -18 -44 -9 -8 -14 -10 -10 -3 8 15
-17 11 -40 -7 -18 -14 -18 -14 -1 12 21 34 22 44 2 28 -14 -11 -14 -10 -6 14
10 24 7 30 -11 27 -4 0 -5 6 -1 15 5 14 0 15 -38 9 -24 -4 -52 -14 -62 -23
-16 -15 -17 -14 -11 1 6 17 0 19 -96 19 -65 0 -74 -6 -47 -34 6 -7 12 -19 13
-25 3 -40 4 -41 42 -38 20 1 31 1 25 -2 -7 -3 -13 -11 -13 -18 0 -12 6 -12 35
1 19 8 34 11 33 7 -3 -15 14 -43 23 -37 5 3 9 0 9 -5 0 -6 -11 -11 -24 -11
-14 0 -28 -5 -32 -11 -5 -9 1 -10 20 -5 21 5 26 3 27 -11 0 -11 3 -13 6 -5 2
6 9 12 14 12 6 0 7 -4 4 -10 -6 -9 35 -16 60 -10 26 6 245 4 245 -2 0 -18 40
-6 58 17 15 18 21 21 25 11 3 -7 2 -17 -3 -22 -5 -5 3 -9 18 -10 15 0 58 -13
94 -27 37 -15 74 -27 83 -27 8 0 26 -6 38 -14 32 -21 342 -36 697 -34 l295 2
-345 6 c-348 7 -473 16 -435 31 18 7 17 8 -5 9 -17 1 -5 9 40 24 36 13 79 30
95 38 17 8 35 13 41 11 6 -2 14 5 17 17 3 11 10 20 15 20 7 0 6 -11 -1 -30 -6
-16 -17 -30 -24 -30 -7 0 -13 -4 -13 -10 0 -5 23 -10 50 -10 29 0 50 5 50 11
0 5 5 7 10 4 6 -3 10 3 10 15 0 19 -1 20 -16 6 -14 -14 -34 -22 -34 -12 0 1
14 17 30 34 22 23 30 41 30 68 0 26 9 46 34 75 42 50 146 256 146 291 0 9 6
15 13 14 6 0 12 4 12 9 0 6 -4 10 -10 9 -6 -1 -9 30 -7 80 3 73 1 86 -26 139
-16 32 -27 55 -24 52 3 -3 12 1 20 8 13 10 15 9 9 -5 -10 -28 3 -48 29 -48 26
0 41 -21 28 -41 -5 -9 -11 -7 -22 7 -14 18 -14 18 -7 -1 4 -11 10 -57 13 -102
l5 -83 53 0 c29 0 56 5 59 10 3 6 1 10 -5 10 -7 0 -10 6 -7 14 3 8 3 16 -1 18
-14 6 -82 102 -79 111 6 19 23 11 37 -18 20 -41 142 -211 183 -257 19 -21 42
-38 51 -38 18 0 22 15 6 25 -17 11 -11 35 16 62 18 18 22 28 14 33 -9 6 -9 9
0 15 9 6 9 9 0 15 -8 5 -7 9 5 13 9 4 13 3 10 -3 -3 -6 -1 -10 4 -10 6 0 11
11 11 25 0 18 -5 25 -20 25 -11 0 -22 -1 -24 -2 -2 -2 -13 5 -24 15 -13 12
-22 15 -27 7 -3 -5 -12 -7 -18 -4 -7 4 -9 4 -5 -1 10 -10 -11 -37 -23 -29 -5
3 -9 0 -9 -5 0 -6 -8 -11 -17 -10 -11 0 -13 3 -5 6 6 2 12 9 12 14 0 4 -7 6
-15 3 -24 -10 -17 11 8 24 44 21 76 22 125 3 l49 -20 10 42 c6 23 14 50 18 60
6 14 2 17 -23 17 -17 0 -34 5 -37 10 -4 6 8 10 30 10 21 0 34 4 30 10 -3 5 3
18 14 29 10 10 22 36 25 58 8 44 26 80 26 51 0 -20 -9 -57 -80 -313 -29 -104
-58 -193 -64 -197 -6 -5 -7 -8 -1 -8 6 0 2 -6 -7 -14 -16 -11 -16 -15 -2 -34
8 -12 21 -22 27 -22 8 0 8 3 -1 9 -11 7 -10 10 3 15 27 10 47 7 39 -6 -4 -7
-3 -8 4 -4 18 11 14 24 -8 28 -33 5 -28 23 8 26 31 3 42 15 23 26 -16 10 -19
59 -8 108 9 37 16 48 32 49 20 0 20 0 0 9 -16 7 -16 9 -4 9 9 1 20 8 23 17 9
22 8 24 -9 24 -9 0 -15 9 -15 21 0 36 51 232 70 269 24 47 35 106 21 114 -6 4
-17 -16 -28 -51 -10 -36 -18 -50 -20 -38 -2 11 -20 29 -41 40 -20 11 -38 28
-40 37 -2 10 14 36 36 59 l39 43 -27 23 c-26 21 -37 23 -145 23 -78 0 -114 3
-110 10 4 7 42 9 108 4 86 -5 100 -4 89 7 -9 9 -48 16 -115 20 -117 6 -111 13
8 9 74 -2 78 -1 65 15 -12 15 -28 17 -112 13 -78 -4 -98 -2 -98 9 0 7 -4 13
-9 13 -13 0 -25 -105 -22 -207 2 -72 0 -93 -11 -93 -7 0 -68 48 -135 106 -104
91 -123 112 -134 150 -12 40 -16 44 -46 44 -21 0 -33 5 -33 13 0 8 -6 14 -13
14 -9 0 -12 -9 -9 -24 5 -27 -5 -29 -36 -7 -37 26 -27 43 31 51 58 9 59 9 104
-5 18 -6 35 -7 38 -2 3 5 -19 14 -49 20 -44 9 -54 15 -50 28 2 9 -1 7 -7 -5
-9 -17 -24 -23 -73 -28 -33 -4 -74 -5 -91 -2 -27 3 -30 7 -33 45 -4 56 -22 54
-22 -3 l0 -45 -41 0 c-31 0 -64 12 -125 45 -45 25 -85 45 -89 45 -4 0 -4 -18
0 -40 5 -32 4 -40 -9 -40 -18 0 -30 17 -15 22 5 2 7 11 3 22 -5 13 -15 17 -34
14 -32 -5 -35 16 -5 38 18 14 18 14 -1 14 -11 0 -31 -11 -44 -25 -28 -30 -64
-37 -37 -7 25 27 21 35 -7 17 l-25 -16 11 36 c15 48 1 64 -39 40 -25 -14 -28
-22 -26 -53 2 -22 0 -31 -4 -22 -11 21 -43 25 -43 5 0 -8 -4 -15 -10 -15 -5 0
-10 6 -10 14 0 7 -11 30 -25 50 -13 20 -22 43 -19 51 4 8 1 15 -5 15 -6 0 -11
-7 -11 -16 0 -24 -33 -13 -47 16 -15 30 -9 38 14 19 15 -12 16 -12 9 5 -7 19
-6 19 14 1 17 -16 20 -16 20 -2 0 9 -8 18 -18 21 -10 3 -23 19 -29 36 -6 16
-16 30 -22 30 -8 0 -9 -6 -1 -19 5 -11 10 -27 10 -37 0 -13 -3 -14 -14 -5 -10
9 -23 6 -56 -11 -29 -16 -44 -19 -47 -11 -2 6 -13 21 -24 34 -14 17 -16 25 -8
36 16 19 49 16 49 -4 0 -15 1 -15 18 0 14 13 21 14 30 5 8 -8 12 -8 12 -1 0
12 -71 63 -88 63 -7 0 -12 5 -12 11 0 6 9 8 20 4 18 -6 20 -3 15 18 -4 14 -2
28 4 31 7 5 11 -2 11 -15 0 -18 2 -19 15 -9 8 7 15 21 15 31 0 23 8 24 32 2
10 -9 18 -11 18 -6 0 6 -7 16 -16 23 -8 8 -14 25 -12 40 1 15 -3 35 -11 43 -7
9 -10 21 -6 27 10 16 -16 12 -35 -5 -16 -14 -18 -14 -23 0 -4 9 -1 15 9 15 9
0 12 5 8 11 -11 18 -7 71 6 79 8 5 8 10 2 14 -5 3 -28 -8 -51 -24 -55 -40 -63
-38 -15 5 29 25 36 37 26 43 -7 5 -11 19 -10 33 2 19 -2 24 -22 26 l-25 3 25
-11 c19 -8 21 -12 11 -19 -8 -5 -24 -4 -38 3 -35 16 -31 58 11 95 19 16 39 40
46 52 8 16 18 20 33 16 21 -5 21 -4 3 9 -17 13 -21 12 -38 -7 -10 -11 -18 -25
-18 -30 0 -5 -5 -6 -10 -3 -6 3 -10 17 -10 30 l0 24 -455 0 -455 0 0 -403z
m900 368 c0 -8 -4 -12 -10 -9 -5 3 -10 10 -10 16 0 5 5 9 10 9 6 0 10 -7 10
-16z m-579 -23 c-6 -4 -9 -22 -7 -39 2 -18 0 -32 -3 -32 -4 0 -16 -7 -27 -15
-18 -13 -18 -14 5 -8 52 13 46 -59 -8 -88 -18 -9 -42 -26 -54 -36 -18 -15 -18
-13 3 12 14 17 31 36 39 43 13 10 12 12 -3 12 -16 0 -15 3 5 20 l24 20 -24 -3
c-36 -3 -37 20 -1 53 39 36 33 51 -16 40 -31 -7 -35 -6 -23 5 16 16 80 34 93
27 4 -2 3 -8 -3 -11z m494 -41 c7 0 16 6 18 13 3 6 6 2 6 -11 1 -13 -3 -20 -9
-17 -17 11 -11 -9 15 -48 19 -27 22 -37 11 -37 -8 0 -19 12 -24 28 l-10 27
-10 -26 c-6 -15 -17 -29 -24 -31 -10 -4 -9 -9 5 -22 21 -21 23 -33 2 -16 -17
14 -21 0 -4 -17 7 -7 7 -13 1 -17 -18 -11 -24 14 -23 91 1 74 20 140 29 101 2
-10 10 -18 17 -18z m45 -148 c0 -15 -11 -21 -27 -15 -12 5 -12 7 -1 14 17 11
28 11 28 1z m17 -34 c-3 -8 -6 -5 -6 6 -1 11 2 17 5 13 3 -3 4 -12 1 -19z
m-623 -23 c-4 -8 -14 -15 -23 -15 -14 1 -13 3 3 15 25 19 27 19 20 0z m316
-69 c0 -3 -4 -8 -10 -11 -5 -3 -10 -1 -10 4 0 6 5 11 10 11 6 0 10 -2 10 -4z
m-74 -54 c-16 -15 -25 -20 -21 -12 13 25 38 50 44 45 3 -3 -8 -18 -23 -33z
m101 -14 c-3 -8 -6 -5 -6 6 -1 11 2 17 5 13 3 -3 4 -12 1 -19z m-44 -13 c-3
-9 -8 -14 -10 -11 -3 3 -2 9 2 15 9 16 15 13 8 -4z m-288 -25 c-3 -5 -1 -10 6
-10 7 0 10 -3 6 -6 -9 -9 -28 6 -22 17 4 5 8 9 11 9 3 0 2 -4 -1 -10z m540
-10 c3 -5 1 -10 -4 -10 -6 0 -11 5 -11 10 0 6 2 10 4 10 3 0 8 -4 11 -10z
m-189 -28 c-18 -16 -18 -16 -6 6 6 13 14 21 18 18 3 -4 -2 -14 -12 -24z m311
-24 c-3 -7 -5 -2 -5 12 0 14 2 19 5 13 2 -7 2 -19 0 -25z m-12 -57 c3 -5 1
-12 -5 -16 -5 -3 -10 1 -10 9 0 18 6 21 15 7z m-15 -99 c-6 -2 -7 -9 -3 -15 4
-6 -8 -1 -25 12 -46 32 -43 59 3 29 19 -13 30 -25 25 -26z m137 -82 l10 25 7
-23 c7 -21 9 -22 20 -6 10 13 16 14 34 5 12 -6 22 -21 22 -31 0 -15 7 -20 27
-20 41 0 13 -21 -35 -27 -33 -4 -42 -1 -60 21 -26 34 -33 33 -19 -4 7 -19 8
-33 1 -40 -15 -15 -54 0 -54 20 0 10 -7 26 -16 34 -14 15 -13 16 8 14 18 -2
23 2 24 22 2 48 7 55 14 20 7 -35 7 -35 17 -10z m283 3 c0 -14 -19 -38 -25
-32 -8 8 5 39 16 39 5 0 9 -3 9 -7z m-667 -74 c-6 -6 -7 3 -4 23 4 28 6 29 9
9 2 -13 0 -27 -5 -32z m190 6 c-3 -9 -8 -14 -10 -11 -3 3 -2 9 2 15 9 16 15
13 8 -4z m-63 -5 c0 -5 -4 -10 -10 -10 -5 0 -10 5 -10 10 0 6 5 10 10 10 6 0
10 -4 10 -10z m480 -19 c0 -6 -4 -13 -10 -16 -5 -3 -10 1 -10 9 0 9 5 16 10
16 6 0 10 -4 10 -9z m-60 -16 c0 -8 -2 -15 -4 -15 -2 0 -6 7 -10 15 -3 8 -1
15 4 15 6 0 10 -7 10 -15z m-535 -5 c3 -5 1 -10 -4 -10 -6 0 -11 5 -11 10 0 6
2 10 4 10 3 0 8 -4 11 -10z m45 -10 c0 -11 5 -20 10 -20 6 0 10 -5 10 -11 0
-5 -4 -7 -10 -4 -5 3 -10 1 -10 -5 0 -7 -6 -10 -14 -7 -8 3 -16 1 -19 -6 -2
-6 -6 -4 -10 6 -4 10 -2 16 6 14 7 -1 13 7 13 18 3 33 4 35 14 35 6 0 10 -9
10 -20z m-70 -2 c0 -7 -4 -19 -9 -27 -11 -17 -25 3 -17 24 7 18 26 20 26 3z
m485 2 c3 -5 1 -10 -4 -10 -6 0 -11 5 -11 10 0 6 2 10 4 10 3 0 8 -4 11 -10z
m-155 -30 c0 -5 -7 -10 -15 -10 -8 0 -15 5 -15 10 0 6 7 10 15 10 8 0 15 -4
15 -10z m-200 -10 c0 -5 -5 -10 -11 -10 -5 0 -7 5 -4 10 3 6 8 10 11 10 2 0 4
-4 4 -10z m703 -23 c-4 -22 -8 -25 -19 -16 -12 10 -12 15 2 30 21 24 24 21 17
-14z m46 -99 c2 -63 40 -100 80 -79 34 19 76 12 156 -24 42 -19 80 -33 84 -30
5 2 16 -4 26 -15 10 -11 28 -20 41 -20 13 0 25 -3 27 -7 3 -5 -14 -8 -36 -8
-26 -1 -64 -12 -97 -29 -50 -25 -58 -27 -95 -16 -22 7 -42 16 -45 21 -3 4 -24
15 -45 24 -30 12 -36 12 -22 2 22 -19 22 -27 -3 -27 -11 0 -20 7 -20 15 0 27
-20 15 -21 -12 0 -16 -3 -22 -6 -15 -2 6 -9 12 -14 12 -6 0 -7 -4 -4 -10 3 -5
2 -10 -3 -10 -11 0 -24 58 -16 71 3 5 10 7 15 4 5 -4 9 -1 9 4 0 6 -4 11 -9
11 -5 0 -12 7 -15 16 -4 10 -2 13 6 8 8 -5 9 5 5 37 -15 105 -17 144 -8 124 5
-11 10 -32 10 -47z m-464 2 c3 -5 1 -10 -4 -10 -6 0 -11 5 -11 10 0 6 2 10 4
10 3 0 8 -4 11 -10z m-142 -27 c-7 -2 -13 -13 -13 -24 0 -10 -5 -19 -11 -19
-5 0 -8 3 -6 8 2 4 7 15 10 25 4 9 12 17 19 16 10 0 10 -2 1 -6z m1702 -27
c11 -2 -35 -4 -103 -5 -68 0 -121 3 -118 7 4 7 172 6 221 -2z m-1921 -10 c13
5 30 -43 17 -50 -16 -9 -81 7 -81 21 0 8 -4 11 -10 8 -5 -3 -10 -4 -10 -1 0
10 65 33 68 25 2 -4 9 -6 16 -3z m564 5 c2 0 -1 -9 -6 -18 -10 -17 -42 -27
-42 -13 0 5 -3 15 -6 24 -4 12 1 14 23 12 15 -2 29 -4 31 -5z m808 -54 c3 -11
9 -15 13 -9 3 6 40 -17 89 -56 l82 -67 -58 -3 c-55 -3 -58 -2 -91 35 -57 66
-93 123 -87 140 6 14 9 14 26 -2 11 -10 22 -27 26 -38z m-579 21 c-3 -8 -6 -5
-6 6 -1 11 2 17 5 13 3 -3 4 -12 1 -19z m-607 2 c0 -5 -5 -10 -11 -10 -5 0 -7
5 -4 10 3 6 8 10 11 10 2 0 4 -4 4 -10z m110 -4 c0 -3 -4 -8 -10 -11 -5 -3
-10 -1 -10 4 0 6 5 11 10 11 6 0 10 -2 10 -4z m1543 -3 c-13 -2 -33 -2 -45 0
-13 2 -3 4 22 4 25 0 35 -2 23 -4z m-1638 -27 c-3 -25 -35 -80 -35 -59 0 12
29 83 34 83 2 0 2 -11 1 -24z m995 4 c0 -5 -9 -6 -20 -3 -11 3 -17 9 -15 14 7
10 35 1 35 -11z m-840 -10 c0 -5 -5 -10 -11 -10 -5 0 -7 5 -4 10 3 6 8 10 11
10 2 0 4 -4 4 -10z m-655 -10 c3 -5 1 -10 -4 -10 -6 0 -11 5 -11 10 0 6 2 10
4 10 3 0 8 -4 11 -10z m531 -25 c1 -14 -2 -22 -7 -19 -5 3 -9 0 -9 -7 0 -7 -2
-10 -5 -7 -5 5 11 58 17 58 2 0 4 -11 4 -25z m1093 -30 l20 -35 -28 15 c-22
11 -28 20 -24 35 3 11 7 20 8 20 2 0 12 -16 24 -35z m-946 -6 c-4 -15 0 -22
16 -26 39 -10 22 -23 -21 -17 -52 8 -59 13 -31 20 12 3 23 14 26 25 3 10 7 19
10 19 3 0 3 -9 0 -21z m-337 -14 c-10 -11 -23 -14 -38 -9 -20 6 -19 8 12 18
42 15 48 12 26 -9z m732 -11 c-4 -3 -12 5 -18 18 -12 22 -12 22 6 6 10 -10 15
-20 12 -24z m882 -11 c0 -7 -7 -13 -15 -13 -10 0 -15 10 -15 32 0 30 1 31 15
12 8 -10 15 -25 15 -31z m-1710 23 c0 -3 -4 -8 -10 -11 -5 -3 -10 -1 -10 4 0
6 5 11 10 11 6 0 10 -2 10 -4z m1389 -24 c19 -9 37 -23 39 -31 4 -11 -5 -9
-32 7 -20 12 -42 19 -49 16 -8 -3 -14 2 -14 11 0 19 13 18 56 -3z m579 4 c3
-3 -21 -6 -54 -5 -45 1 -53 3 -34 9 26 8 77 6 88 -4z m-948 0 c0 -2 -9 -6 -20
-9 -11 -3 -18 -1 -14 4 5 9 34 13 34 5z m-534 -53 c24 -27 31 -68 16 -88 -8
-12 -122 -7 -122 5 0 4 7 27 15 51 24 67 53 77 91 32z m-482 -110 c3 -39 9
-79 12 -87 5 -12 2 -15 -9 -10 -9 3 -15 13 -15 22 0 9 -3 53 -7 97 -4 51 -3
75 3 65 5 -8 12 -47 16 -87z m1201 87 c3 -5 1 -10 -4 -10 -6 0 -11 5 -11 10 0
6 2 10 4 10 3 0 8 -4 11 -10z m0 -52 c-8 -18 -21 -58 -29 -88 -9 -30 -29 -72
-47 -93 -43 -52 -48 -39 -6 16 21 27 41 72 52 113 16 58 28 83 42 84 2 0 -4
-15 -12 -32z m250 -95 c35 -73 43 -167 21 -252 -62 -242 -314 -439 -534 -417
-86 8 -92 10 -92 18 0 4 -6 8 -14 8 -10 0 -12 7 -8 23 l5 22 -23 -20 c-26 -22
-20 -8 17 43 13 17 21 37 17 44 -4 6 -3 8 4 4 6 -4 12 3 14 16 2 13 9 22 15
21 7 -2 10 3 7 11 -5 13 -64 21 -64 8 0 -9 -34 -54 -73 -96 -31 -33 -27 -19 8
29 38 52 40 58 17 46 -33 -18 -35 -13 -5 15 15 14 23 23 16 20 -6 -4 -16 2
-22 11 -10 17 -10 17 -11 1 0 -10 -11 -20 -25 -24 -14 -3 -23 -10 -20 -14 3
-5 1 -11 -5 -15 -17 -11 -11 -28 8 -20 11 4 14 3 7 -4 -6 -6 -21 -12 -33 -13
-19 -3 -26 6 -46 54 -19 45 -23 75 -22 135 l1 78 140 36 c77 20 157 43 179 52
50 22 76 22 77 0 0 -13 2 -14 6 -4 10 24 37 51 51 51 9 0 2 -14 -17 -35 -37
-42 -38 -51 -10 -58 18 -5 20 -2 15 18 -4 14 0 27 9 35 15 12 20 4 16 -22 0
-5 4 -8 10 -8 6 0 9 7 5 15 -6 16 28 40 44 30 12 -7 51 31 42 41 -4 4 -2 4 4
1 7 -4 15 0 18 9 3 8 2 12 -4 9 -6 -3 -10 -1 -10 4 0 6 6 11 13 11 8 0 18 24
26 65 7 36 18 68 23 71 6 4 8 -1 5 -12 -3 -11 -11 -44 -17 -75 -6 -31 -25 -79
-43 -107 -36 -57 -88 -103 -95 -84 -5 15 -52 -40 -52 -61 0 -26 16 -28 55 -10
27 13 32 19 20 23 -13 4 -6 17 34 60 l49 55 131 -1 131 0 0 30 c0 46 -25 131
-51 173 -16 27 -18 34 -6 24 9 -7 28 -38 42 -68z m-1705 53 c0 -3 -4 -8 -10
-11 -5 -3 -10 -1 -10 4 0 6 5 11 10 11 6 0 10 -2 10 -4z m1401 -43 c-5 -10
-16 -27 -25 -38 -13 -17 -15 -18 -16 -3 0 10 10 26 22 38 27 25 32 25 19 3z
m662 10 c-18 -2 -48 -2 -65 0 -18 2 -4 4 32 4 36 0 50 -2 33 -4z m135 -62 c3
-8 -1 -12 -9 -9 -7 2 -15 10 -17 17 -3 8 1 12 9 9 7 -2 15 -10 17 -17z m-885
-38 c-7 -2 -21 -2 -30 0 -10 3 -4 5 12 5 17 0 24 -2 18 -5z m212 -13 c-3 -5
-11 -10 -16 -10 -6 0 -7 5 -4 10 3 6 11 10 16 10 6 0 7 -4 4 -10z m-195 -14
c0 -3 -4 -8 -10 -11 -5 -3 -10 -1 -10 4 0 6 5 11 10 11 6 0 10 -2 10 -4z m567
-12 c-3 -3 -12 -4 -19 -1 -8 3 -5 6 6 6 11 1 17 -2 13 -5z m193 -100 c0 -8 -5
-12 -10 -9 -6 4 -8 11 -5 16 9 14 15 11 15 -7z m-1536 -309 c-4 -8 -10 -15
-15 -15 -4 0 -6 7 -3 15 4 8 10 15 15 15 4 0 6 -7 3 -15z m1052 -41 c-3 -9 -9
-27 -12 -40 -4 -14 -11 -23 -17 -21 -17 5 -17 40 0 59 20 22 37 23 29 2z
m-946 -24 c0 -3 -8 -10 -18 -16 -14 -9 -18 -8 -19 5 -1 10 6 17 18 17 10 0 19
-3 19 -6z m80 -14 c0 -3 -4 -8 -10 -11 -5 -3 -10 -1 -10 4 0 6 5 11 10 11 6 0
10 -2 10 -4z"/>
<path d="M1000 1946 c0 -9 7 -12 21 -9 16 4 17 8 7 14 -19 13 -28 11 -28 -5z"/>
<path d="M1640 1049 c0 -8 5 -20 11 -26 8 -8 1 -16 -25 -28 -20 -10 -36 -22
-36 -27 0 -13 62 26 75 46 7 11 5 20 -8 33 -14 14 -17 15 -17 2z"/>
<path d="M1936 814 c-11 -30 -6 -37 14 -19 11 10 17 22 14 26 -8 14 -21 11
-28 -7z"/>
<path d="M1669 804 c-15 -18 -6 -110 10 -106 8 2 11 -3 8 -12 -3 -8 0 -19 7
-25 12 -10 33 -6 92 19 32 14 60 47 49 58 -3 4 -10 0 -14 -7 -5 -8 -11 -9 -15
-3 -3 5 1 13 10 16 9 4 15 9 12 11 -10 10 -38 -7 -38 -24 0 -10 -3 -12 -8 -5
-4 6 -13 13 -20 15 -9 3 -8 10 4 27 12 17 19 21 27 13 6 -6 18 -11 27 -11 13
0 13 2 1 9 -13 8 -13 12 0 27 13 16 12 17 -6 9 -20 -8 -29 -9 -98 -3 -21 2
-42 -1 -48 -8z m71 -24 c0 -5 -5 -10 -11 -10 -5 0 -7 5 -4 10 3 6 8 10 11 10
2 0 4 -4 4 -10z m-56 -12 c-5 -9 -2 -9 9 1 15 12 17 11 17 -7 0 -12 -5 -24
-12 -28 -6 -4 -8 -3 -5 3 4 6 0 13 -8 17 -17 6 -20 26 -4 26 5 0 7 -6 3 -12z
m84 -58 c3 -7 0 -10 -7 -6 -6 4 -11 0 -12 -11 0 -13 -4 -10 -13 10 -7 15 -16
24 -21 20 -4 -5 -5 -3 -1 4 8 15 48 2 54 -17z m-54 -33 c-9 -5 -18 -6 -21 -3
-4 3 -1 6 5 6 7 0 12 8 12 18 0 14 2 15 10 2 6 -10 4 -17 -6 -23z"/>
<path d="M1581 797 c-21 -27 -44 -91 -32 -95 6 -2 11 -14 11 -27 0 -13 4 -27
10 -30 6 -3 7 1 4 9 -4 10 -1 16 8 16 17 0 39 64 31 88 -4 15 -3 15 6 2 9 -13
11 -13 11 2 0 9 3 23 6 32 8 20 -38 22 -55 3z"/>
<path d="M1536 783 c-3 -10 -9 -24 -12 -30 -3 -7 -2 -13 4 -13 7 0 32 42 32
55 0 13 -18 3 -24 -12z"/>
<path d="M1852 780 c0 -14 2 -19 5 -12 2 6 2 18 0 25 -3 6 -5 1 -5 -13z"/>
<path d="M1629 723 c-10 -11 -10 -14 -1 -9 6 4 12 3 12 -2 0 -6 -8 -13 -17
-16 -15 -6 -15 -8 -3 -16 23 -15 26 -12 28 25 3 40 0 42 -19 18z"/>
<path d="M1482 705 c-9 -20 -9 -25 3 -25 14 0 28 16 31 38 4 22 -23 13 -34
-13z"/>
<path d="M2323 2780 c10 -15 12 -33 6 -71 -9 -59 -4 -79 22 -79 16 0 19 8 20
48 1 58 11 94 26 99 7 3 9 -4 6 -17 -4 -14 -1 -19 8 -15 8 3 34 1 59 -4 l45
-9 -57 -1 c-85 -2 -71 -17 25 -27 l82 -9 -80 -3 c-85 -3 -100 -9 -85 -32 7
-10 10 -11 10 -2 0 8 18 12 58 12 82 0 132 -10 132 -26 0 -11 -22 -14 -100
-14 -60 0 -100 -4 -100 -10 0 -5 -1 -13 -2 -16 -2 -4 55 -6 126 -5 101 2 127
-1 124 -11 -4 -10 -33 -12 -125 -9 -140 4 -177 -13 -50 -22 45 -4 104 -7 130
-7 27 0 46 -4 43 -9 -3 -4 -59 -6 -126 -3 -128 5 -150 -1 -150 -42 0 -20 4
-21 104 -18 57 2 119 -1 137 -6 27 -8 7 -10 -93 -11 -71 -1 -128 -5 -128 -10
0 -5 50 -10 111 -10 62 -1 119 -6 128 -11 11 -6 -27 -9 -111 -10 -82 0 -128
-4 -128 -10 0 -6 10 -10 23 -9 65 6 227 -2 227 -11 0 -6 -48 -10 -125 -10 -69
0 -125 -4 -125 -9 0 -4 66 -9 147 -10 127 -2 145 0 134 13 -10 12 -9 15 6 20
25 7 261 -8 270 -18 5 -5 -49 -5 -119 -1 -81 5 -128 4 -128 -2 0 -11 114 -23
207 -23 37 0 52 -4 47 -11 -4 -8 -44 -9 -130 -4 -78 5 -124 4 -124 -2 0 -6 41
-13 92 -17 130 -9 198 -8 198 4 0 6 -5 10 -12 10 -6 0 -9 3 -6 6 4 3 16 1 27
-6 20 -10 21 -17 21 -270 0 -167 4 -260 10 -260 9 0 18 358 11 469 -2 40 -1
43 13 32 9 -8 16 -17 16 -22 0 -25 42 -49 84 -49 25 0 48 -4 51 -10 4 -6 -15
-10 -49 -10 -33 0 -56 -4 -56 -11 0 -5 8 -9 18 -8 9 1 40 1 67 0 68 -2 39 -21
-32 -21 -30 0 -53 -5 -53 -10 0 -6 10 -10 23 -9 64 6 217 -2 217 -11 0 -6 -47
-10 -120 -10 -66 0 -120 -4 -120 -9 0 -4 64 -9 143 -10 130 -1 143 -3 159 -22
9 -11 23 -19 30 -18 44 6 188 -3 188 -11 0 -6 -42 -10 -107 -10 -58 0 -103 -3
-99 -7 9 -9 12 -9 149 -11 69 -1 106 -6 102 -12 -4 -6 -59 -10 -131 -10 -69 0
-123 -3 -120 -8 2 -4 53 -9 113 -11 158 -4 164 -20 8 -22 -126 -1 -128 -2 -60
-11 77 -10 220 -7 247 6 12 5 17 2 20 -11 7 -30 18 218 22 492 2 143 5 265 6
270 1 6 2 27 1 48 l-1 37 -731 0 c-729 0 -730 0 -716 -20z m1132 -60 c-3 -5
-14 -10 -23 -10 -15 0 -15 2 -2 10 20 13 33 13 25 0z m-690 -30 c4 -6 -7 -10
-24 -10 -17 0 -31 5 -31 10 0 6 11 10 24 10 14 0 28 -4 31 -10z m711 -11 c-26
-6 -43 -6 -50 1 -7 7 6 10 40 9 l49 -1 -39 -9z m-797 -77 c8 -14 6 -19 -5 -19
-7 0 -14 9 -14 19 0 10 2 18 5 18 2 0 9 -8 14 -18z m174 -21 c8 -8 -10 -11
-71 -11 -45 0 -82 4 -82 9 0 22 131 24 153 2z m-163 -47 c0 -14 -3 -14 -15 -4
-8 7 -15 14 -15 16 0 2 7 4 15 4 8 0 15 -7 15 -16z m210 6 c44 -6 29 -8 -72
-8 -71 0 -128 4 -128 9 0 11 123 10 200 -1z m-305 -30 c39 -6 20 -8 -83 -9
-87 -1 -131 3 -127 9 7 12 137 12 210 0z m95 -10 c0 -5 -4 -10 -9 -10 -6 0
-13 5 -16 10 -3 6 1 10 9 10 9 0 16 -4 16 -10z m53 3 c-7 -2 -21 -2 -30 0 -10
3 -4 5 12 5 17 0 24 -2 18 -5z m197 -3 c19 -12 -62 -12 -100 0 -19 6 -12 8 30
9 30 0 62 -4 70 -9z m373 -7 c-13 -2 -35 -2 -50 0 -16 2 -5 4 22 4 28 0 40 -2
28 -4z m-482 -23 c38 0 69 -4 69 -9 0 -7 -75 -8 -170 -2 -29 2 -32 4 -15 11
11 5 26 7 33 4 8 -2 45 -4 83 -4z m507 -17 c-16 -2 -40 -2 -55 0 -16 2 -3 4
27 4 30 0 43 -2 28 -4z m-505 -24 c60 -1 67 -2 42 -10 -26 -8 -185 -9 -185 -1
0 7 46 20 58 16 8 -2 46 -4 85 -5z m520 -16 c-7 -2 -19 -2 -25 0 -7 3 -2 5 12
5 14 0 19 -2 13 -5z m-133 -39 c0 -2 -17 -4 -37 -3 -29 0 -33 2 -18 8 18 7 55
4 55 -5z m235 6 c-3 -5 -14 -10 -23 -10 -15 0 -15 2 -2 10 20 13 33 13 25 0z
m-202 -37 c-7 -2 -21 -2 -30 0 -10 3 -4 5 12 5 17 0 24 -2 18 -5z m37 -49 c0
-2 -44 -3 -97 -2 -97 2 -97 2 -28 7 67 6 125 3 125 -5z m-121 -28 c-11 -9 -69
-14 -69 -6 0 6 17 10 37 10 20 0 34 -2 32 -4z m176 -6 c7 -12 -72 -12 -130 -1
-34 8 -29 9 42 10 45 0 85 -3 88 -9z m112 -36 c-3 -3 -12 -4 -19 -1 -8 3 -5 6
6 6 11 1 17 -2 13 -5z m91 -131 c-16 -2 -40 -2 -55 0 -16 2 -3 4 27 4 30 0 43
-2 28 -4z"/>
<path d="M991 2737 c2 -2 20 -14 39 -26 l35 -23 -28 26 c-15 14 -33 26 -39 26
-6 0 -9 -1 -7 -3z"/>
<path d="M992 2670 c0 -14 2 -19 5 -12 2 6 2 18 0 25 -3 6 -5 1 -5 -13z"/>
<path d="M1220 2560 c8 -5 20 -10 25 -10 6 0 3 5 -5 10 -8 5 -19 10 -25 10 -5
0 -3 -5 5 -10z"/>
<path d="M1195 2542 c-6 -4 -16 -15 -24 -24 -12 -16 -11 -18 2 -18 9 0 21 9
27 21 13 23 10 32 -5 21z"/>
<path d="M1106 2507 c3 -10 9 -15 12 -12 3 3 0 11 -7 18 -10 9 -11 8 -5 -6z"/>
<path d="M1052 2474 c10 -10 20 -15 24 -12 3 4 -5 12 -18 18 -22 12 -22 12 -6
-6z"/>
<path d="M1132 2440 c0 -14 2 -19 5 -12 2 6 2 18 0 25 -3 6 -5 1 -5 -13z"/>
<path d="M2371 2434 c0 -11 3 -14 6 -6 3 7 2 16 -1 19 -3 4 -6 -2 -5 -13z"/>
<path d="M1080 2434 c1 -17 50 -70 50 -53 0 8 -11 26 -25 39 -14 13 -25 19
-25 14z"/>
<path d="M1065 2400 c3 -5 8 -10 11 -10 2 0 4 5 4 10 0 6 -5 10 -11 10 -5 0
-7 -4 -4 -10z"/>
<path d="M2390 2334 c0 -7 49 -11 141 -13 103 -2 140 1 137 9 -5 16 -278 20
-278 4z"/>
<path d="M2327 2324 c-10 -10 -9 -54 2 -54 5 0 11 6 14 13 6 16 -7 50 -16 41z"/>
<path d="M2390 2297 c0 -10 30 -14 141 -16 101 -2 140 1 137 9 -2 7 -52 13
-141 16 -111 4 -137 2 -137 -9z"/>
<path d="M2700 2291 c0 -5 51 -11 123 -13 125 -3 160 -1 152 11 -7 12 -275 14
-275 2z"/>
<path d="M1914 2251 c-23 -11 -47 -27 -53 -38 -6 -10 -11 -12 -11 -5 0 20 -16
14 -30 -12 -11 -21 -10 -28 9 -55 21 -29 72 -67 57 -42 -10 15 7 14 22 -1 8
-8 12 -8 12 -1 0 6 -13 16 -30 22 -56 19 -36 64 45 97 27 12 44 25 43 33 -4
22 -19 22 -64 2z"/>
<path d="M2385 2260 c-3 -5 -5 -10 -3 -11 2 0 68 -3 147 -6 107 -4 142 -2 140
6 -6 16 -274 26 -284 11z"/>
<path d="M2700 2251 c0 -10 59 -14 225 -16 25 0 44 4 43 9 -4 13 -268 20 -268
7z"/>
<path d="M2380 2222 c0 -5 57 -13 131 -17 71 -4 127 -10 124 -14 -4 -3 -60 -4
-126 -2 -73 2 -119 -1 -119 -7 0 -14 61 -22 164 -22 49 0 86 -3 83 -7 -4 -3
-61 -5 -127 -4 -80 2 -120 -1 -120 -8 0 -7 37 -12 103 -12 56 -1 112 -2 125
-2 12 -1 22 -5 22 -9 0 -4 -56 -8 -125 -8 -77 0 -125 -4 -125 -10 0 -6 48 -10
125 -10 77 0 125 -4 125 -10 0 -6 -48 -10 -125 -10 -69 0 -125 -4 -125 -9 0
-4 64 -9 142 -10 130 -2 140 -1 128 14 -11 13 -11 18 -1 25 10 6 10 9 1 15 -9
6 -9 9 1 15 10 7 10 12 0 23 -9 12 -9 16 1 20 10 4 10 7 1 18 -9 9 -10 16 -2
26 7 7 10 13 8 14 -38 7 -289 8 -289 1z"/>
<path d="M2700 2212 c0 -5 10 -10 23 -9 12 0 65 -1 117 -2 125 -3 145 -2 137
5 -11 11 -277 17 -277 6z"/>
<path d="M2828 2183 c-71 -2 -128 -7 -128 -12 0 -5 64 -9 142 -10 126 -2 140
0 128 14 -7 8 -13 14 -14 13 0 -1 -58 -4 -128 -5z"/>
<path d="M2700 2132 c0 -5 46 -10 102 -11 56 -1 105 -4 109 -7 10 -6 69 7 65
15 -6 10 -276 13 -276 3z"/>
<path d="M2696 2103 c-17 -17 6 -21 141 -22 133 -2 145 0 133 14 -9 10 -17 12
-23 6 -5 -5 -30 -8 -56 -6 -113 10 -189 13 -195 8z"/>
<path d="M3225 2091 c-155 -7 -116 -21 58 -21 83 0 108 3 105 13 -6 15 -2 14
-163 8z"/>
<path d="M301 2048 c0 -16 -5 -28 -11 -28 -5 0 -10 -7 -10 -15 0 -19 19 -20
26 -1 3 8 4 27 1 43 l-4 28 -2 -27z"/>
<path d="M2694 2058 c-8 -13 10 -15 151 -17 100 -2 137 1 130 8 -12 12 -274
21 -281 9z"/>
<path d="M1165 2049 c-9 -14 -4 -18 26 -21 13 -2 27 -7 32 -13 4 -6 10 -5 16
5 13 20 6 28 -24 25 -14 -2 -25 1 -25 6 0 12 -17 11 -25 -2z"/>
<path d="M1572 2045 c-72 -18 -112 -35 -112 -49 0 -6 27 -23 60 -38 73 -32 81
-23 10 11 -28 13 -47 28 -42 33 9 9 130 44 177 51 28 4 28 4 -5 4 -19 1 -59
-5 -88 -12z"/>
<path d="M3102 2049 c2 -6 7 -10 11 -10 4 1 66 1 137 1 80 0 130 4 130 10 0 6
-54 10 -141 10 -96 0 -140 -3 -137 -11z"/>
<path d="M1708 2043 c7 -3 16 -2 19 1 4 3 -2 6 -13 5 -11 0 -14 -3 -6 -6z"/>
<path d="M2518 2032 c-80 -2 -128 -7 -128 -13 0 -6 8 -9 18 -8 61 6 232 -2
232 -12 0 -13 -276 -11 -302 2 -11 6 -18 4 -22 -6 -3 -9 -18 -15 -36 -15 -17
0 -30 -5 -30 -12 0 -9 -3 -8 -10 2 -7 12 -12 12 -29 -4 -11 -10 -26 -15 -33
-11 -7 3 -5 0 5 -8 9 -8 17 -19 17 -26 0 -16 27 -14 34 4 4 12 23 14 103 10
54 -2 144 -4 201 -5 66 0 101 -4 97 -10 -4 -6 -58 -10 -131 -10 -68 0 -124 -4
-124 -9 0 -4 55 -9 122 -10 96 -2 125 -5 131 -16 4 -8 13 -15 18 -15 6 0 7 5
4 10 -3 6 1 10 9 10 21 0 20 10 -1 26 -15 11 -15 15 -4 23 26 17 -11 25 -115
22 -65 -2 -104 1 -109 8 -4 8 32 11 116 11 94 0 120 3 111 12 -8 8 -8 15 -2
23 20 24 -15 30 -142 27z"/>
<path d="M2695 2021 c-6 -10 95 -21 197 -21 48 0 78 4 76 10 -4 12 -265 22
-273 11z"/>
<path d="M3104 2009 c-4 -7 148 -19 235 -19 40 0 52 3 44 11 -12 12 -272 19
-279 8z"/>
<path d="M192 1987 c-18 -24 -22 -46 -6 -40 7 3 14 11 14 19 0 8 4 14 10 14 5
0 7 -7 4 -15 -4 -8 -1 -15 5 -15 6 0 11 7 11 15 0 18 5 18 31 4 18 -9 19 -8 8
9 -13 21 -63 27 -77 9z"/>
<path d="M1973 1987 c3 -9 2 -19 -3 -22 -6 -4 -10 -11 -10 -17 0 -7 6 -6 15 2
18 15 19 36 3 46 -8 5 -9 2 -5 -9z"/>
<path d="M2696 1982 c-8 -13 68 -22 187 -22 87 0 98 2 87 15 -7 8 -17 12 -23
8 -12 -7 -189 -5 -223 3 -12 3 -24 1 -28 -4z"/>
<path d="M3225 1970 l-130 -6 105 -4 c58 -1 124 -4 148 -6 42 -3 57 8 26 20
-9 3 -16 5 -17 4 -1 -1 -60 -5 -132 -8z"/>
<path d="M2695 1939 c-7 -10 88 -19 200 -19 67 0 96 3 89 10 -12 12 -283 20
-289 9z"/>
<path d="M2017 1933 c-16 -15 -5 -23 31 -22 27 1 31 3 12 6 -14 3 -28 9 -31
14 -3 5 -8 6 -12 2z"/>
<path d="M3100 1931 c0 -11 235 -20 270 -10 31 9 36 8 -132 14 -81 3 -138 2
-138 -4z"/>
<path d="M3535 1930 c-71 -3 -125 -8 -120 -11 13 -8 251 -10 271 -2 13 5 13 7
2 14 -7 5 -15 8 -18 7 -3 -1 -63 -5 -135 -8z"/>
<path d="M1610 1915 c14 -8 30 -14 35 -14 6 0 -1 6 -15 14 -14 8 -29 14 -35
14 -5 0 1 -6 15 -14z"/>
<path d="M1820 1910 c0 -5 7 -10 16 -10 8 0 12 5 9 10 -3 6 -10 10 -16 10 -5
0 -9 -4 -9 -10z"/>
<path d="M2140 1903 c19 -3 41 -9 47 -15 9 -7 13 -7 13 0 0 14 -26 22 -63 20
l-32 -1 35 -4z"/>
<path d="M2690 1900 c0 -12 71 -20 185 -20 159 0 120 19 -48 23 -75 2 -137 0
-137 -3z"/>
<path d="M3104 1889 c-6 -10 223 -18 253 -9 16 5 26 9 23 10 -19 4 -273 4
-276 -1z"/>
<path d="M3535 1890 c-98 -4 -120 -7 -90 -12 48 -9 191 -10 222 -2 13 4 20 10
17 15 -3 5 -8 8 -12 7 -4 -1 -65 -5 -137 -8z"/>
<path d="M0 1780 l0 -110 143 6 c78 4 143 7 144 8 1 1 3 39 4 86 l2 85 -109 3
c-70 1 -120 8 -141 17 -17 8 -34 15 -37 15 -3 0 -6 -49 -6 -110z"/>
<path d="M3742 1865 c0 -16 2 -22 5 -12 2 9 2 23 0 30 -3 6 -5 -1 -5 -18z"/>
<path d="M2248 1873 c6 -2 18 -2 25 0 6 3 1 5 -13 5 -14 0 -19 -2 -12 -5z"/>
<path d="M2380 1867 c0 -11 15 -15 73 -16 39 0 79 4 87 9 11 7 -4 10 -50 10
-36 0 -75 3 -87 6 -16 5 -23 2 -23 -9z"/>
<path d="M2311 1857 c14 -7 33 -18 43 -26 9 -8 16 -9 16 -3 0 16 -41 42 -65
41 -17 -1 -16 -2 6 -12z"/>
<path d="M2695 1863 c14 -14 192 -25 200 -13 4 6 -12 10 -38 10 -24 0 -73 3
-108 6 -43 4 -61 3 -54 -3z"/>
<path d="M2942 1858 c3 -7 13 -15 24 -17 16 -3 17 -1 5 13 -16 19 -34 21 -29
4z"/>
<path d="M3100 1849 c0 -10 258 -16 274 -7 6 4 9 8 6 8 -57 6 -280 5 -280 -1z"/>
<path d="M3535 1850 c-97 -4 -120 -7 -90 -12 56 -11 233 -10 239 1 9 15 -13
16 -149 11z"/>
<path d="M2380 1828 c0 -9 21 -14 78 -16 94 -4 87 13 -10 23 -54 5 -68 4 -68
-7z"/>
<path d="M3100 1811 c0 -7 48 -11 142 -11 78 0 138 3 135 7 -12 12 -277 15
-277 4z"/>
<path d="M3535 1810 c-98 -4 -120 -7 -90 -12 48 -9 191 -10 222 -2 13 4 20 10
17 15 -3 5 -8 8 -12 7 -4 -1 -65 -5 -137 -8z"/>
<path d="M3228 1783 c-71 -2 -128 -8 -128 -12 0 -5 64 -10 142 -10 126 -2 140
0 128 14 -7 8 -13 14 -14 13 0 -1 -58 -4 -128 -5z"/>
<path d="M3410 1769 c0 -7 153 -19 232 -19 30 0 48 4 46 10 -3 11 -278 20
-278 9z"/>
<path d="M3235 1740 c-154 -7 -128 -22 30 -18 82 2 114 6 104 13 -8 6 -62 8
-134 5z"/>
<path d="M3410 1731 c0 -9 270 -24 278 -16 3 3 3 7 1 10 -8 8 -279 13 -279 6z"/>
<path d="M386 1711 c-4 -7 -5 -15 -2 -18 9 -9 19 4 14 18 -4 11 -6 11 -12 0z"/>
<path d="M2725 1701 c-18 -7 -17 -10 13 -25 23 -12 32 -22 28 -32 -3 -9 -6
-18 -6 -20 0 -3 -4 -3 -9 1 -5 3 18 -23 52 -58 34 -35 63 -63 65 -61 6 4 -71
104 -80 104 -4 0 -8 8 -8 17 0 13 3 14 12 5 7 -7 21 -12 33 -12 20 1 20 1 0
12 -23 12 -45 37 -45 51 0 5 7 4 15 -3 18 -15 20 1 3 18 -13 13 -43 15 -73 3z"/>
<path d="M2832 1694 c-11 -12 -10 -15 3 -20 20 -8 24 -3 16 17 -5 15 -8 15
-19 3z"/>
<path d="M3260 1700 c-56 -3 -88 -8 -77 -12 25 -11 159 -10 176 1 22 14 1 16
-99 11z"/>
<path d="M3557 1693 c-133 -4 -136 -23 -4 -23 99 0 140 7 131 21 -3 5 -8 8
-12 7 -4 -1 -56 -4 -115 -5z"/>
<path d="M3418 1683 c7 -3 16 -2 19 1 4 3 -2 6 -13 5 -11 0 -14 -3 -6 -6z"/>
<path d="M370 1669 c0 -5 5 -7 10 -4 6 3 10 8 10 11 0 2 -4 4 -10 4 -5 0 -10
-5 -10 -11z"/>
<path d="M3248 1653 c12 -2 30 -2 40 0 9 3 -1 5 -23 4 -22 0 -30 -2 -17 -4z"/>
<path d="M3391 1640 c-50 -18 -70 -33 -71 -52 0 -5 -23 -8 -52 -8 -74 0 -55
-8 30 -12 46 -2 71 0 69 7 -2 5 -11 9 -21 7 -31 -6 -15 13 32 36 42 20 62 22
181 22 74 0 131 3 128 7 -4 3 -60 8 -124 10 -99 3 -127 0 -172 -17z"/>
<path d="M3148 1633 c7 -3 16 -2 19 1 4 3 -2 6 -13 5 -11 0 -14 -3 -6 -6z"/>
<path d="M0 1597 c0 -30 4 -37 23 -41 91 -20 122 -24 125 -17 2 5 23 6 48 3
40 -4 46 -2 51 17 3 12 13 21 24 21 12 0 17 7 16 20 -1 18 -8 20 -77 20 -41 0
-105 3 -142 7 l-68 6 0 -36z"/>
<path d="M3025 1619 c-13 -6 0 -7 40 -3 33 4 62 8 64 10 9 8 -85 2 -104 -7z"/>
<path d="M321 1604 c0 -11 3 -14 6 -6 3 7 2 16 -1 19 -3 4 -6 -2 -5 -13z"/>
<path d="M3410 1609 c0 -5 53 -9 125 -9 77 0 125 -4 125 -10 0 -6 -47 -10
-121 -10 -66 0 -118 -4 -115 -8 3 -5 56 -7 118 -5 62 2 119 3 127 3 8 0 11 3
8 7 -4 3 -2 12 4 20 6 7 10 13 8 13 -2 0 -66 2 -141 5 -83 2 -138 0 -138 -6z"/>
<path d="M2933 1603 c15 -2 37 -2 50 0 12 2 0 4 -28 4 -27 0 -38 -2 -22 -4z"/>
<path d="M3035 1511 c-33 -10 -85 -28 -115 -39 -65 -26 -60 -25 -60 -8 0 7 -9
16 -20 19 -18 5 -18 4 -3 -19 8 -13 24 -24 35 -24 16 0 19 -5 13 -28 -4 -20
-1 -33 10 -42 8 -7 15 -9 15 -5 0 4 6 2 13 -4 17 -14 28 -4 20 17 -4 11 -3 13
3 7 5 -5 24 -26 42 -46 29 -32 32 -40 23 -58 -7 -12 -19 -21 -27 -21 -10 0 5
-30 47 -89 40 -59 66 -88 75 -84 17 6 18 20 2 26 -10 3 -9 9 4 22 15 16 14 21
-20 69 -23 32 -28 44 -14 32 12 -11 22 -15 22 -10 0 5 5 2 10 -6 7 -11 10 -5
11 25 1 22 4 31 6 20 6 -23 22 -45 33 -45 11 0 34 196 25 212 -6 10 -5 10 5 1
10 -9 10 -33 0 -118 -7 -58 -9 -109 -6 -112 3 -4 6 1 6 10 0 10 5 17 10 17 6
0 11 10 11 23 1 17 2 18 6 4 4 -15 7 -16 20 -5 14 12 15 9 9 -27 l-6 -40 16
30 c10 17 18 58 20 95 3 80 3 80 14 55 8 -19 9 -19 9 2 1 12 8 29 17 37 14 15
13 17 -18 30 -31 14 -33 13 -40 -7 l-6 -22 -1 21 c-1 23 -37 40 -45 20 -3 -7
-5 -7 -5 2 -1 15 -66 16 -126 1 -45 -11 -66 -42 -39 -57 9 -5 12 -18 7 -45
l-6 -38 -24 23 c-13 12 -21 28 -18 36 3 7 0 10 -6 7 -6 -4 -9 1 -7 11 2 13 -3
19 -17 19 -11 0 -20 5 -20 10 0 17 76 49 145 61 36 7 53 13 38 13 -47 2 -131
-21 -170 -45 -25 -16 -39 -20 -44 -13 -14 24 93 67 206 84 80 12 82 13 30 13
-30 0 -82 -7 -115 -17z m65 -178 c0 -16 -1 -15 -13 2 -8 11 -17 29 -21 40 -7
18 -6 18 13 -2 12 -12 21 -30 21 -40z m17 -15 c-2 -13 -4 -5 -4 17 -1 22 1 32
4 23 2 -10 2 -28 0 -40z m90 -30 c-3 -8 -6 -5 -6 6 -1 11 2 17 5 13 3 -3 4
-12 1 -19z m40 0 c-3 -8 -6 -5 -6 6 -1 11 2 17 5 13 3 -3 4 -12 1 -19z m-182
-88 l49 -55 -50 48 c-28 26 -53 44 -57 41 -4 -4 -7 1 -7 10 0 25 8 19 65 -44z"/>
<path d="M3211 1502 c0 -16 3 -21 6 -12 3 8 10 18 15 21 5 3 3 9 -6 12 -12 5
-16 0 -15 -21z"/>
<path d="M0 1414 l0 -107 50 6 c28 3 50 4 50 2 0 -2 -21 -11 -47 -18 -45 -13
-48 -16 -51 -50 l-3 -37 78 1 c43 1 107 8 143 17 l65 17 2 118 c1 75 -2 117
-9 117 -6 0 -8 6 -5 14 7 18 -41 26 -170 26 l-103 0 0 -106z"/>
<path d="M3435 1499 c-5 -7 40 -10 149 -8 86 1 156 6 156 11 0 12 -298 10
-305 -3z"/>
<path d="M3385 1450 c-7 -11 12 -50 23 -50 4 0 8 11 8 24 2 25 -21 43 -31 26z"/>
<path d="M2830 1421 c0 -6 4 -13 10 -16 6 -3 7 1 4 9 -7 18 -14 21 -14 7z"/>
<path d="M3760 1389 c0 -5 5 -7 10 -4 6 3 10 8 10 11 0 2 -4 4 -10 4 -5 0 -10
-5 -10 -11z"/>
<path d="M2778 1358 c-72 -95 -117 -254 -103 -360 8 -53 31 -66 38 -20 l4 27
2 -27 c0 -16 5 -28 10 -28 4 0 11 42 13 93 6 101 31 183 79 255 27 41 28 44
13 67 -21 32 -27 31 -56 -7z m39 -36 c-8 -9 -25 -37 -37 -60 -12 -24 -24 -42
-26 -39 -6 6 48 120 61 129 16 12 18 -12 2 -30z m-70 -134 c-3 -8 -6 -5 -6 6
-1 11 2 17 5 13 3 -3 4 -12 1 -19z m-20 -80 c-3 -8 -6 -5 -6 6 -1 11 2 17 5
13 3 -3 4 -12 1 -19z"/>
<path d="M2857 1373 c3 -10 10 -23 15 -30 5 -7 5 -14 -2 -18 -18 -11 -56 -77
-78 -138 -26 -67 -41 -220 -23 -231 6 -4 38 -4 72 0 44 5 57 9 45 16 -9 5 -36
7 -61 4 -41 -5 -45 -4 -45 15 0 16 4 19 17 15 72 -28 169 -27 180 2 4 8 -2 21
-12 28 -24 17 -39 18 -29 2 4 -7 -2 -5 -13 5 -11 9 -33 18 -49 18 l-29 1 30 7
c17 4 42 3 57 -2 55 -18 62 -3 12 25 -46 26 -48 28 -25 35 24 6 24 7 -15 41
-41 36 -35 35 31 -6 22 -13 34 -18 28 -11 -26 27 -12 32 15 6 27 -26 52 -35
52 -19 0 15 -51 82 -63 82 -7 -1 -5 -6 6 -14 25 -19 21 -27 -10 -23 -21 3 -27
9 -25 23 2 14 1 16 -6 6 -7 -11 -14 -7 -30 16 -12 16 -18 32 -14 36 4 4 1 6
-7 4 -8 -1 -16 5 -18 14 -3 12 1 15 16 11 31 -8 36 21 11 62 -23 36 -44 48
-33 18z m-2 -233 c22 -11 32 -18 23 -16 -9 3 -33 8 -52 12 -20 3 -36 10 -36
15 0 14 22 10 65 -11z m-32 -67 c9 -9 -12 -33 -29 -33 -17 0 -18 27 -1 33 18
8 23 8 30 0z m147 -59 c0 -8 -4 -12 -10 -9 -5 3 -10 10 -10 16 0 5 5 9 10 9 6
0 10 -7 10 -16z"/>
<path d="M3500 1376 c0 -4 11 -19 25 -34 14 -15 40 -49 57 -76 18 -27 34 -44
36 -37 2 6 -12 32 -31 59 -37 49 -87 101 -87 88z"/>
<path d="M4045 1371 c-3 -5 -1 -12 5 -16 5 -3 10 1 10 9 0 18 -6 21 -15 7z"/>
<path d="M3600 1295 c0 -5 9 -21 20 -35 11 -14 20 -20 20 -15 0 6 -9 21 -20
35 -11 14 -20 21 -20 15z"/>
<path d="M3287 1267 c-4 -10 -7 -26 -7 -35 1 -15 2 -15 11 1 6 10 9 25 7 35
-3 16 -4 15 -11 -1z"/>
<path d="M4273 1263 c9 -2 23 -2 30 0 6 3 -1 5 -18 5 -16 0 -22 -2 -12 -5z"/>
<path d="M4380 1260 c-9 -6 -92 -8 -210 -5 -107 2 -258 0 -335 -4 -96 -5 -143
-4 -148 3 -12 16 2 -32 23 -78 10 -21 19 -34 21 -28 2 6 52 12 126 14 66 2
120 1 118 -2 -2 -3 59 -5 136 -5 95 -1 143 -5 151 -13 7 -7 28 -12 48 -12 38
0 61 -15 54 -34 -3 -8 -24 -11 -66 -8 -38 3 -59 1 -55 -5 4 -6 -26 -13 -75
-16 -49 -4 -85 -12 -89 -19 -12 -19 75 -30 139 -17 29 6 65 8 81 4 17 -3 32
-2 36 4 3 6 16 11 29 11 31 0 38 9 21 26 -10 10 -11 22 -6 37 8 22 41 37 41
19 0 -6 9 -8 20 -5 17 5 20 14 20 69 0 44 -4 64 -12 64 -7 0 -22 3 -33 5 -11
3 -27 1 -35 -5z"/>
<path d="M3505 1230 c-3 -5 -13 -7 -23 -4 -13 5 -14 4 -3 -4 9 -7 10 -12 2
-16 -14 -9 -15 -46 -1 -46 8 0 79 36 89 46 2 2 -2 10 -9 19 -14 17 -46 20 -55
5z"/>
<path d="M3633 1204 c-3 -8 0 -27 6 -41 6 -14 9 -34 6 -44 -4 -13 -2 -19 6
-17 16 4 38 -97 39 -178 0 -68 -29 -193 -58 -251 -11 -21 -39 -60 -62 -86 -33
-37 -47 -46 -63 -41 -16 5 -19 3 -14 -10 4 -11 -3 -22 -20 -33 -19 -13 -28
-14 -31 -5 -6 19 -22 14 -22 -8 0 -15 -12 -23 -52 -35 -28 -8 -65 -15 -82 -15
-21 0 -27 -3 -20 -10 11 -11 844 -28 834 -17 -3 3 -150 8 -325 11 -176 2 -336
8 -355 12 l-35 8 48 11 c26 5 48 15 49 20 0 6 15 18 32 29 17 10 34 23 37 28
10 16 197 27 249 15 14 -3 32 -7 40 -8 15 -2 -14 -6 -189 -29 -52 -6 -104 -18
-115 -27 -20 -14 -19 -15 19 -9 22 3 59 6 83 6 32 0 41 3 36 13 -6 9 -4 8 8
-1 13 -10 59 -12 210 -8 106 3 277 5 380 5 l188 1 0 220 -1 220 -32 0 c-48 0
-75 -10 -80 -29 -4 -14 -5 -14 -6 0 -1 14 -30 17 -223 23 -123 5 -260 7 -305
6 l-82 -1 -6 38 c-17 116 -29 172 -46 211 -19 44 -35 53 -46 26z m53 -91 c-5
-5 -36 62 -36 76 1 3 10 -11 21 -32 11 -22 18 -41 15 -44z m94 -313 c0 -13
-20 -13 -40 0 -12 8 -9 10 13 10 15 0 27 -4 27 -10z m647 -9 c-2 -10 0 -26 5
-35 7 -12 5 -16 -10 -16 -21 0 -32 18 -32 51 0 13 7 19 21 19 16 0 20 -5 16
-19z m-47 -4 c0 -7 -11 -14 -25 -15 -24 -2 -32 8 -18 21 11 12 43 8 43 -6z
m-65 -7 c3 -6 -1 -7 -9 -4 -18 7 -21 14 -7 14 6 0 13 -4 16 -10z m-115 -250
c0 -5 -9 -10 -20 -10 -11 0 -20 5 -20 10 0 6 9 10 20 10 11 0 20 -4 20 -10z
m-163 -7 c-15 -2 -25 -9 -22 -14 4 -5 -24 -8 -67 -7 l-73 1 55 6 c41 5 49 8
30 12 -14 4 4 6 40 6 36 0 53 -2 37 -4z m-244 -30 c-7 -2 -21 -2 -30 0 -10 3
-4 5 12 5 17 0 24 -2 18 -5z"/>
<path d="M3286 1195 c-6 -16 -9 -17 -16 -5 -6 8 -10 10 -10 4 0 -6 7 -17 15
-24 12 -10 16 -9 21 4 3 8 4 21 2 28 -3 7 -7 5 -12 -7z"/>
<path d="M3141 1163 c7 -12 15 -20 18 -17 3 2 -3 12 -13 22 -17 16 -18 16 -5
-5z"/>
<path d="M3507 1159 c-22 -11 -37 -23 -34 -25 5 -5 77 35 77 42 0 6 -1 5 -43
-17z"/>
<path d="M3565 1160 c-3 -5 1 -10 9 -10 9 0 16 5 16 10 0 6 -4 10 -9 10 -6 0
-13 -4 -16 -10z"/>
<path d="M3189 1143 c-9 -2 -19 -18 -23 -35 -9 -44 -8 -48 10 -48 14 0 14 3 4
15 -7 8 -9 16 -4 16 5 1 16 2 24 3 8 0 16 13 18 29 3 27 1 28 -29 20z"/>
<path d="M3267 1106 c-4 -28 -3 -54 2 -59 5 -5 6 3 3 18 -4 24 -2 25 22 19 16
-4 26 -2 26 5 0 6 -9 11 -19 11 -14 0 -21 8 -23 28 -2 20 -5 14 -11 -22z"/>
<path d="M2930 1110 c20 -13 63 -13 55 0 -3 6 -21 10 -38 10 -24 0 -28 -3 -17
-10z"/>
<path d="M3035 1110 c-3 -5 1 -10 10 -10 9 0 13 5 10 10 -3 6 -8 10 -10 10 -2
0 -7 -4 -10 -10z"/>
<path d="M3345 1110 c-3 -5 -1 -10 4 -10 6 0 11 5 11 10 0 6 -2 10 -4 10 -3 0
-8 -4 -11 -10z"/>
<path d="M3425 1110 c-3 -6 1 -7 9 -4 18 7 21 14 7 14 -6 0 -13 -4 -16 -10z"/>
<path d="M3525 1090 c-3 -5 -1 -10 4 -10 6 0 11 5 11 10 0 6 -2 10 -4 10 -3 0
-8 -4 -11 -10z"/>
<path d="M3104 1064 c3 -9 6 -18 6 -20 0 -3 5 -2 10 1 16 10 12 35 -6 35 -11
0 -14 -5 -10 -16z"/>
<path d="M180 1060 c0 -5 5 -10 11 -10 5 0 7 5 4 10 -3 6 -8 10 -11 10 -2 0
-4 -4 -4 -10z"/>
<path d="M3377 1019 c-32 -22 -57 -44 -57 -50 0 -5 -12 -9 -27 -9 -24 0 -31
-7 -47 -47 -16 -38 -21 -43 -26 -27 -4 10 -5 34 -2 52 4 25 1 32 -12 32 -14 0
-16 -6 -11 -29 5 -25 0 -35 -35 -70 -39 -38 -40 -40 -13 -30 42 17 84 17 90 1
4 -9 14 -11 29 -8 26 7 29 0 14 -24 -7 -11 -10 -11 -10 -2 0 7 -4 11 -9 7 -14
-8 -11 -85 3 -85 8 0 8 -2 0 -8 -13 -8 -16 -64 -3 -56 5 3 9 -7 9 -21 0 -15 4
-24 10 -20 12 8 13 -5 0 -25 -8 -12 -10 -12 -16 4 -5 14 -9 15 -15 4 -5 -7 -9
-21 -9 -30 0 -15 9 -18 60 -18 38 0 60 4 60 11 0 8 4 8 14 0 11 -9 16 -9 22 0
5 8 3 10 -7 4 -8 -5 -10 -4 -6 0 13 15 37 14 37 -1 0 -8 10 -14 25 -14 32 0
110 72 102 94 -4 10 -1 13 8 10 8 -4 20 6 29 24 15 28 14 31 -7 46 -22 17 -22
17 0 6 30 -14 30 -14 41 19 7 20 7 32 -1 40 -8 8 -6 11 6 11 12 0 17 8 17 30
0 25 -6 34 -32 46 l-33 14 40 -6 c31 -5 37 -4 29 6 -7 6 -23 12 -35 11 -87 -3
-185 2 -187 10 -6 15 -22 10 -22 -6 0 -10 -6 -12 -17 -8 -23 9 -48 33 -34 33
6 0 11 6 11 14 0 8 14 24 30 36 29 21 56 58 47 66 -2 2 -29 -14 -60 -37z m-92
-99 c3 -5 2 -10 -4 -10 -5 0 -13 5 -16 10 -3 6 -2 10 4 10 5 0 13 -4 16 -10z
m63 -91 c-2 -6 -8 -11 -13 -11 -6 0 -18 -4 -28 -10 -16 -8 -17 -7 -7 11 11 21
55 30 48 10z m159 -44 c23 -14 43 -28 43 -31 0 -4 -83 40 -99 53 -18 13 21 -2
56 -22z m-227 -5 c0 -5 -2 -10 -4 -10 -3 0 -8 5 -11 10 -3 6 -1 10 4 10 6 0
11 -4 11 -10z m48 -61 c10 0 12 -3 5 -6 -7 -2 -13 -9 -13 -14 0 -6 8 -6 19 1
16 8 23 6 34 -11 11 -15 16 -17 20 -7 3 7 6 8 6 3 1 -6 -12 -25 -28 -43 l-30
-32 -15 22 c-9 12 -16 28 -16 34 0 7 -4 14 -8 16 -5 2 -12 21 -15 42 -6 38 -6
38 9 18 8 -12 23 -22 32 -23z m160 -84 c-3 -3 -9 2 -12 12 -6 14 -5 15 5 6 7
-7 10 -15 7 -18z m-88 0 c0 -8 -4 -15 -10 -15 -5 0 -7 7 -4 15 4 8 8 15 10 15
2 0 4 -7 4 -15z m-80 -25 c0 -5 -2 -10 -4 -10 -3 0 -8 5 -11 10 -3 6 -1 10 4
10 6 0 11 -4 11 -10z"/>
<path d="M4435 1050 c-3 -5 1 -10 9 -10 9 0 16 5 16 10 0 6 -4 10 -9 10 -6 0
-13 -4 -16 -10z"/>
<path d="M3352 1043 c-7 -2 -17 -14 -23 -25 -9 -17 -8 -18 9 -9 39 21 51 49
14 34z"/>
<path d="M3017 1027 c17 -7 35 -15 39 -19 13 -14 22 -9 20 10 -2 13 -14 18
-47 19 l-44 2 32 -12z"/>
<path d="M3244 1028 c-4 -7 -3 -8 4 -4 7 4 12 2 12 -4 0 -7 7 -10 15 -6 8 3
15 1 15 -4 0 -6 -6 -10 -13 -10 -8 0 -14 -7 -14 -15 0 -30 40 -12 43 19 2 15
0 26 -3 23 -3 -3 -16 -2 -29 3 -15 6 -26 5 -30 -2z"/>
<path d="M2420 1005 c0 -14 4 -25 9 -25 5 0 11 -18 15 -41 4 -23 13 -54 22
-70 17 -33 30 -30 -123 -34 -65 -1 -99 -7 -117 -18 -14 -10 -34 -17 -46 -17
-16 0 -20 -6 -20 -31 0 -17 4 -28 10 -24 6 3 10 2 10 -4 0 -5 -5 -13 -11 -17
-8 -4 -7 -9 2 -15 11 -7 11 -9 1 -9 -7 0 -10 -5 -7 -10 5 -8 12 -7 22 1 13 11
14 8 7 -27 -7 -40 -21 -57 -38 -47 -5 4 -7 -1 -3 -11 4 -10 7 -20 7 -22 0 -12
39 -2 53 14 22 24 22 43 0 35 -16 -6 -16 -5 -4 10 19 24 34 10 27 -25 -5 -24
-2 -30 20 -38 14 -6 63 -10 110 -10 87 0 88 0 87 46 0 16 50 2 53 -14 1 -7 0
-8 -3 -2 -7 15 -23 12 -23 -5 0 -19 34 -19 50 0 7 8 22 16 34 16 17 1 17 2 4
6 -10 2 -18 12 -18 21 0 15 -2 15 -10 2 -9 -13 -10 -13 -10 0 0 11 -2 12 -8 3
-10 -16 -52 -5 -52 13 0 8 -6 11 -17 7 -14 -5 -13 -1 5 19 23 25 30 58 11 58
-5 0 -7 -4 -4 -10 3 -5 2 -10 -4 -10 -6 0 -7 -7 -4 -17 4 -11 3 -14 -5 -9 -19
11 -6 65 22 95 14 15 23 31 19 36 -5 4 3 2 16 -5 27 -14 25 -8 -14 45 -12 17
-22 45 -23 63 -1 43 -11 74 -23 67 -5 -4 -9 3 -9 14 0 12 -4 21 -10 21 -5 0
-10 -11 -10 -25z"/>
<path d="M2525 1010 c3 -5 8 -10 11 -10 2 0 4 5 4 10 0 6 -5 10 -11 10 -5 0
-7 -4 -4 -10z"/>
<path d="M1150 990 c-13 -8 -12 -10 3 -10 9 0 17 5 17 10 0 12 -1 12 -20 0z"/>
<path d="M1068 944 c-16 -8 -28 -17 -28 -19 0 -11 19 -4 41 15 29 23 24 25
-13 4z"/>
<path d="M3145 952 c-11 -11 -4 -22 15 -22 11 0 20 6 20 13 0 13 -25 19 -35 9z"/>
<path d="M3024 938 c-3 -4 2 -8 10 -8 8 0 17 4 20 8 3 5 -2 9 -10 9 -8 0 -17
-4 -20 -9z"/>
<path d="M70 928 c-37 -10 -63 -28 -42 -28 17 0 82 28 82 34 0 4 -1 6 -2 5 -2
0 -19 -5 -38 -11z"/>
<path d="M2918 933 c6 -2 18 -2 25 0 6 3 1 5 -13 5 -14 0 -19 -2 -12 -5z"/>
<path d="M2700 920 c-47 -3 -71 -7 -53 -8 17 -1 35 -7 38 -12 9 -14 -16 -78
-33 -85 -19 -7 -38 5 -22 15 8 5 7 9 -4 13 -11 4 -16 1 -16 -11 0 -21 36 -46
45 -32 7 12 25 4 25 -10 0 -5 -14 -17 -30 -25 -18 -9 -28 -21 -24 -27 4 -6 0
-16 -8 -22 -14 -10 -38 -48 -38 -60 0 -2 13 2 30 10 16 9 34 13 38 10 5 -3 8
6 6 20 -2 18 2 24 14 22 9 -2 21 7 27 20 12 22 12 22 30 2 9 -10 15 -26 12
-34 -3 -8 -1 -17 6 -20 8 -3 4 -12 -12 -25 -12 -12 -27 -19 -31 -16 -5 3 -10
0 -12 -6 -3 -9 -10 -9 -27 0 -21 12 -22 11 -11 -8 8 -17 8 -21 -2 -19 -7 2
-14 -7 -16 -19 -3 -20 1 -23 32 -23 19 0 37 4 40 9 8 13 92 32 110 25 9 -3 16
-12 16 -20 0 -8 4 -14 10 -14 14 0 1 60 -19 90 -35 50 -34 54 1 25 20 -16 35
-35 33 -41 -7 -23 121 -120 146 -112 6 2 -14 23 -45 47 -31 24 -56 47 -56 50
0 4 -20 31 -45 60 -42 50 -78 116 -92 169 -11 43 18 20 41 -34 29 -67 65 -124
79 -124 7 0 26 14 44 30 18 17 36 30 41 30 5 0 15 7 22 15 15 18 -1 21 -32 4
-11 -6 -23 -7 -27 -3 -3 5 -13 8 -21 8 -8 -1 -21 -2 -27 -3 -7 0 -13 -9 -13
-18 -1 -15 -4 -14 -20 6 -23 27 -25 37 -7 39 6 0 29 5 50 10 23 6 37 6 37 0 0
-5 30 -8 69 -6 39 1 68 4 66 7 -3 2 0 10 6 17 7 9 4 16 -10 26 -12 8 -18 18
-14 21 3 4 -3 7 -14 7 -12 0 -23 -8 -26 -21 -4 -16 -9 -18 -24 -10 -10 5 -38
14 -63 19 -41 9 -42 10 -12 11 22 1 32 6 32 17 0 13 -8 15 -52 9 -74 -9 -136
-13 -115 -8 9 2 17 9 17 14 0 5 -1 8 -2 7 -2 -1 -41 -5 -88 -8z m157 -26 c-3
-3 -12 -4 -19 -1 -8 3 -5 6 6 6 11 1 17 -2 13 -5z m-115 -42 c5 -15 14 -40 19
-55 7 -26 6 -27 -14 -21 -20 6 -21 5 -7 -11 13 -17 13 -18 0 -10 -29 16 -59
48 -54 56 3 5 17 9 32 10 25 0 25 1 6 9 -16 6 -20 15 -17 34 6 30 20 25 35
-12z m108 -6 c0 -2 -7 -7 -16 -10 -8 -3 -12 -2 -9 4 6 10 25 14 25 6z"/>
<path d="M2843 923 c9 -2 23 -2 30 0 6 3 -1 5 -18 5 -16 0 -22 -2 -12 -5z"/>
<path d="M3081 873 c0 -4 4 -17 9 -28 8 -19 9 -19 9 2 1 12 -3 25 -9 28 -5 3
-10 3 -9 -2z"/>
<path d="M626 849 c-21 -16 -35 -20 -61 -15 -25 5 -35 3 -35 -6 0 -9 -3 -9
-12 0 -19 19 -86 15 -91 -5 -4 -16 -5 -16 -6 1 -1 14 -7 17 -26 14 -14 -3 -27
-2 -30 2 -2 3 -27 4 -54 0 -28 -3 -57 -3 -65 2 -8 4 -26 4 -39 -1 -14 -5 -27
-8 -29 -6 -7 8 -132 15 -155 9 -23 -6 -23 -7 -23 -156 0 -133 2 -149 16 -144
9 3 27 6 41 6 18 0 24 4 20 14 -4 10 5 16 34 21 57 10 38 25 -34 26 -49 1 -56
3 -31 8 17 4 124 6 239 5 167 -3 213 0 236 11 34 18 40 18 36 4 -1 -6 8 -13
20 -15 17 -3 23 3 29 29 4 17 8 43 8 57 1 14 5 31 10 39 6 10 6 12 -2 7 -8 -5
-12 3 -11 26 1 18 3 25 6 16 2 -10 9 -18 15 -18 5 0 8 6 5 13 -2 6 4 21 14 32
28 32 9 51 -25 24z"/>
<path d="M2530 836 c0 -2 7 -9 15 -16 13 -11 14 -10 9 4 -5 14 -24 23 -24 12z"/>
<path d="M3128 780 c14 -98 -3 -146 -28 -78 l-12 33 -29 -85 c-16 -47 -29 -88
-29 -92 0 -9 67 -9 95 0 17 6 20 17 22 75 1 44 6 74 16 85 8 9 17 24 20 32 3
8 6 0 6 -19 1 -25 -2 -32 -14 -27 -9 3 -15 0 -15 -10 0 -9 5 -12 11 -8 9 5 10
-7 5 -45 -4 -28 -9 -58 -12 -66 -5 -12 2 -15 30 -15 33 0 36 2 34 28 -1 15 2
37 6 49 6 18 4 21 -14 16 -18 -5 -19 -3 -12 18 11 30 9 56 -8 91 -15 31 -49
47 -60 27 -6 -9 -9 -7 -13 7 -2 10 -2 3 1 -16z"/>
<path d="M2561 765 c-12 -20 -18 -41 -15 -46 3 -6 -2 -16 -11 -23 -16 -11 -16
-14 -2 -19 17 -6 44 44 32 62 -3 6 -1 11 4 11 6 0 11 -4 11 -10 0 -5 6 -7 14
-4 17 6 16 56 0 61 -7 2 -21 -12 -33 -32z"/>
<path d="M3002 768 c-77 -56 -112 -83 -112 -88 0 -15 97 -100 114 -100 17 0
38 58 53 148 3 18 9 35 14 38 17 10 9 24 -15 24 -12 0 -37 -10 -54 -22z m19
-65 c-16 -20 -28 -39 -26 -43 2 -3 -7 -7 -21 -8 -16 -1 -24 3 -24 14 0 8 -5
12 -11 9 -6 -4 -5 2 3 14 16 25 38 28 38 4 0 -14 7 -10 32 15 43 42 47 41 9
-5z"/>
<path d="M662 754 c1 -10 -2 -18 -7 -17 -6 1 -11 -7 -11 -18 0 -10 4 -19 9
-19 5 0 7 -9 4 -21 -3 -13 -1 -19 6 -16 7 2 11 13 9 25 -2 12 2 30 7 41 8 14
7 22 -5 32 -14 11 -15 10 -12 -7z"/>
<path d="M705 698 c2 -11 -1 -26 -8 -34 -39 -43 -39 -44 -15 -44 13 1 37 7 53
14 l30 13 -23 12 c-16 8 -22 19 -19 31 3 10 -1 21 -8 24 -9 3 -12 -2 -10 -16z"/>
<path d="M821 684 c0 -11 3 -14 6 -6 3 7 2 16 -1 19 -3 4 -6 -2 -5 -13z"/>
<path d="M2105 690 c-3 -5 -1 -10 4 -10 6 0 11 5 11 10 0 6 -2 10 -4 10 -3 0
-8 -4 -11 -10z"/>
<path d="M750 672 c0 -5 7 -13 16 -16 10 -4 14 -1 12 6 -5 15 -28 23 -28 10z"/>
<path d="M640 635 c0 -8 2 -15 4 -15 2 0 6 7 10 15 3 8 1 15 -4 15 -6 0 -10
-7 -10 -15z"/>
<path d="M2017 634 c-4 -4 -7 -14 -7 -23 0 -11 3 -12 11 -4 6 6 10 16 7 23 -2
6 -7 8 -11 4z"/>
<path d="M2085 610 c-3 -6 1 -7 9 -4 18 7 21 14 7 14 -6 0 -13 -4 -16 -10z"/>
<path d="M2770 586 c0 -2 11 -6 25 -8 13 -3 22 -1 19 3 -5 9 -44 13 -44 5z"/>
<path d="M1888 563 c18 -2 45 -2 60 0 15 2 0 4 -33 4 -33 0 -45 -2 -27 -4z"/>
<path d="M3011 507 c-9 -27 -9 -29 2 -15 12 15 15 15 37 -3 27 -20 55 -25 64
-10 3 5 -7 11 -22 14 -15 3 -37 15 -49 26 l-21 20 -11 -32z"/>
<path d="M2528 513 c17 -2 47 -2 65 0 17 2 3 4 -33 4 -36 0 -50 -2 -32 -4z"/>
<path d="M3318 513 c7 -3 16 -2 19 1 4 3 -2 6 -13 5 -11 0 -14 -3 -6 -6z"/>
<path d="M360 470 c0 -13 11 -13 30 0 12 8 11 10 -7 10 -13 0 -23 -4 -23 -10z"/>
<path d="M4008 473 c6 -2 18 -2 25 0 6 3 1 5 -13 5 -14 0 -19 -2 -12 -5z"/>
<path d="M75 450 c-3 -5 -1 -10 4 -10 6 0 11 5 11 10 0 6 -2 10 -4 10 -3 0 -8
-4 -11 -10z"/>
<path d="M110 450 c0 -5 5 -10 11 -10 5 0 7 5 4 10 -3 6 -8 10 -11 10 -2 0 -4
-4 -4 -10z"/>
<path d="M4268 453 c6 -2 9 -10 5 -16 -4 -7 0 -8 11 -4 10 4 53 7 97 7 46 0
79 4 79 10 0 6 -40 10 -102 9 -57 0 -97 -3 -90 -6z"/>
<path d="M3438 443 c7 -3 16 -2 19 1 4 3 -2 6 -13 5 -11 0 -14 -3 -6 -6z"/>
<path d="M4438 413 c7 -3 16 -2 19 1 4 3 -2 6 -13 5 -11 0 -14 -3 -6 -6z"/>
</g>
</svg>
